<?xml version="1.0" standalone="no"?>
<!DOCTYPE svg PUBLIC "-//W3C//DTD SVG 20010904//EN"
 "http://www.w3.org/TR/2001/REC-SVG-20010904/DTD/svg10.dtd">
<svg version="1.0" xmlns="http://www.w3.org/2000/svg"
 width="528.000000pt" height="528.000000pt" viewBox="0 0 528.000000 528.000000"
 preserveAspectRatio="xMidYMid meet">
<metadata>
Created by potrace 1.14, written by Peter Selinger 2001-2017
</metadata>
<g transform="translate(0.000000,528.000000) scale(0.100000,-0.100000)"
fill="#000000" stroke="none">
<path d="M0 2640 l0 -2640 2640 0 2640 0 0 2640 0 2640 -2640 0 -2640 0 0
-2640z m4085 1310 l0 -175 -1507 -3 c-830 -1 -1508 -1 -1509 0 -5 20 -9 280
-4 313 l6 45 1507 -2 1507 -3 0 -175z m0 -1300 l0 -175 -1512 -3 -1513 -2 0
180 0 180 1513 -2 1512 -3 0 -175z m-1 -1196 c9 -23 7 -344 -1 -344 -5 0 -685
0 -1513 -1 l-1505 -1 -3 181 -2 181 1509 0 c1367 0 1509 -1 1515 -16z"/>
</g>
</svg>
